<?xml version="1.0" encoding="UTF-8"?>
<svg width="210mm" height="297mm" version="1.1" viewBox="0 0 210 297" xmlns="http://www.w3.org/2000/svg">
 <g transform="matrix(.26458 0 0 .26458 27.083 37.458)" fill-rule="evenodd">
  <path d="m185.64 468.16c23.662 10.338 60.94 11.794 113.48 3.2964l39.554 124.78c-31.799 8.5098-48.681 20.358-76.655 17.736-26.423-2.477-52.387-22.811-89.095-38.455-9.9735-34.932-20.348-64.099-32.055-74.057-7.5175-6.3945-15.586-4.8697-24.451 8.1336-4.7333 3.2921-4.3432-0.8738-3.1857-3.0764 6.706-12.759 21.96-23.031 32.977-22.042 12.203 1.096 25.035 13.779 45.079 30.298-2.3417-14.6-17.514-27.7-39.554-37.2 11.301-3.1394 22.367-5.101 33.904-9.4179z" fill="#1b1918"/>
  <g fill="#1b1918">
   <path d="m349.71 131.59v3e-4c0.7461 1.7524-0.0771 3.7956-1.8295 4.5414l-181.79 77.379c-1.7521 0.7458-3.7953-0.0774-4.5411-1.8295l-3e-4 -2e-4c-0.7458-1.7521 0.0774-3.7953 1.8295-4.5414l181.79-77.379c1.7524-0.7458 3.7956 0.0773 4.5414 1.8294z"/>
   <path d="m341.91 86.746c-13.336 23.503-13.74 44.804-0.8801 63.846 4.9571 8.6292 5.0447 15.157 1.8072 20.251-6.5634-1.581-11.319-6.1231-13.743-14.483-12.214-27.995-31.486-38.47-54.111-40.624 2.3683-27.91 42.03-49.686 66.927-28.99z"/>
  </g>
  <path d="m266.98 254.54c-8.3747 2.8614-14.524 10.346-19.511 17.036-4.3535 5.8395-7.4627 12.51-9.095 20.164 16.232-6.7533 19.892-0.0993 24.542-5.3373 1.8189-2.0495 1.1967-4.4518 1.5195-6.7967 0.6845-4.9669 1.0429-11.322 2.5454-25.066z" fill="#1b1918"/>
  <path d="m282.76 256.31c-2.472 11.694-2.1189 24.094-3.1786 36.141 7.4036 0.5969 13.275 2.2674 17.54 5.0619 1.1967-19.718-4.8828-32.16-14.362-41.202z" fill="#1b1918"/>
  <path d="m271.46 257.37-7.5339 50.503c-2.1129 7.4901 7.0541 7.3473 8.5935 2.3542l6.2393-51.797c0.5101-2.8255-5.1013-6.1219-7.2989-1.0597z" fill="#1b1918"/>
  <path d="m278.64 311.29c6.6853 3.9485 16.23 5.0384 30.136 1.7658-3.0465 4.587-11.59 7.2242-24.368 8.3583 1.7149 2.8073 6.3678 3.3148 15.303 0.4709 9.5357 9.2217 19.738 17.775 30.843 25.428 15.696 26.604 37.514 47.324 51.326 71.339 7.4338-7.472 17.172-18.362 25.601-27.945 8.9228-10.144 16.436-18.767 20.31-18.202 7.7645-12.371 17.898-21.846 31.314-27.311 5.1526 0.2206 19.959 18.57 18.049 26.796-1.9349 8.3333-27.65 14.549-29.586 22.882l2.3545 2.3542c-14.159 27.448-36.978 49.483-61.215 70.632-9.2021-9.7524-21.71-17.73-34.746-23.676-12.318-5.6185-22.726-12.166-33.061-19.881-5.5719 9.8884-8.79 22.603-13.185 33.904-39.547 6.0276-79.744 6.5287-120.55 1.8833 0.7827-24.242-6.1906-38.828-6.4657-57.677-0.2018-13.846 0.7962-27.453 3.4049-40.738-1.864-16.56-9.2605-15.225-13.891-22.838-8.1333-11.825-14.311-24.041-19.306-36.493-1.9616-28.253 21.504-56.506 32.256-84.759l6.3567-0.4709c9.3396-9.4962 4.0809-19.934 6.1215-29.901 6.0635-9.3008 15.437-10.563 25.899-9.1823 6.9067 10.987 1.0984 24.093-5.4153 33.668l1.8836 0.9418c-9.5638 12.769-12.923 27.977-16.755 43.137-2.1738 8.6-7.1068 13.964-7.7311 25.377 6.4643 6.4642 11.293 17.904 12.868 27.35 1.6345 9.798 7.9454 23.254 14.208 25.154 3.8214 1.4558 8.7363-1.6926 11.464-4.6985 4.0264-4.4375 8.0535-5.579 13.493-4.2482l2.4721-3.0607c-11.307-2.3692-19.182-5.2434-22.014-11.066 9.457 3.5833 19.777 4.6977 31.432 2.0015 2.204 5.2633 6.0421 4.4535 10.538 4.9287 3.9567 0.4179 6.806-1.013 10.653-6.224z" fill="#1b1918"/>
  <path d="m262.63 292.51c0.1146 5.7972-0.2716 11.469-1.4127 16.952-6.2977 0.1054-10.122 1.9609-14.244 1.9809-5.3911 0.0263-9.6834-1.0721-12.76-3.4135-4.869-3.7057-8.5786-10.527-5.016-20.934 4.4095 13.417 13.594 9.9062 21.713 6.6255 3.8976-1.5747 8.2116-1.7783 11.72-1.2102z" fill="#1b1918"/>
  <path d="m320.55 294.04c-25.31 12.204-27.782 1.3344-41.673 2.0014-1.8442 2.4329-3.5712 12.047 0.824 12.949 20.897 5.7638 33.138-1.249 40.849-14.951z" fill="#1b1918"/>
  <path d="m246.98 303.34c3.0027-4.8564 7.0818-7.4263 12.596-6.9455 1.7305 5.1317-1.7705 7.7788-12.596 6.9455z" fill="#fff"/>
  <path d="m293.6 307.11c-4.3165-2.4389-8.6327-4.0353-12.949-4.5913-1.5455-5.0334 1.2365-4.5785 6.7967-2.0306 2.1083 0.9657 5.4463 3.5295 6.1525 6.6219z" fill="#fff"/>
  <path d="m250.16 321.94c10.359 1.3735 21.425 1.9231 31.078 0.4712 2.1485 3.4146 6.3358 3.1284 9.3837 4.79 2.0556 1.1208 4.0756 2.2719 6.0589 3.4519 8.7843 5.2274 16.859 11.036 24.229 17.421-6.1606-1.2949-12.675-4.7087-18.835-5.2975 0.6151 9.1905 6.8003 19.809 19.659 32.138-9.4687-2.5621-18.549-6.9334-27.076-13.891-0.3378 9.6435 2.2168 20.408 10.359 33.433-11.793-6.7038-20.307-16.252-26.134-28.606-8.0977 10.769-10.267 24.077-5.1801 40.496-5.8467-3.3676-10.359-18.175-14.009-40.378-7.2246 18.749-15.212 35.97-30.961 37.671 9.4706-9.5165 16.28-25.152 22.602-41.909-12.213 8.6212-24.044 14.06-35.316 14.833 10.63-8.2732 19.668-17.74 24.015-30.725-8.973 6.387-17.513 8.6035-25.545 5.8862 12.014-6.2471 21.733-15.061 30.608-25.075 3.0736 0.5556 4.0681-1.4583 5.0622-4.7091z" fill="#fff"/>
  <path d="m257.28 336.85c5.5745-3.4558 11.471-2.7097 16.599 0.3535 5.5467 3.3135 8.586-3.3302 3.0607-7.4168-3.8801-2.8692-8.0147-4.4051-12.832-4.1204-3.9428 0.2328-6.1959 2.7009-9.0644 5.4157-4.0791 3.8613-2.833 8.911 2.2367 5.768z" fill="#1b1918"/>
  <path d="m254.71 335.69c0.4628-0.0926 1.1757-0.4866 1.4359-0.6479 6.0702-3.763 12.83-3.2422 18.819 0.3353 0.5471 0.3268 1.8253 0.9337 2.4183 0.3624 0.3616-0.3485 0.3755-0.9913 0.2869-1.448-0.221-1.1365-1.1077-2.1136-2.0097-2.7806-3.4483-2.5503-7.1067-3.9613-11.436-3.7054-3.3013 0.1951-5.4758 2.7084-7.7221 4.8348-0.5233 0.4951-1.8146 2.0976-1.7926 3.0494z" fill="#fff"/>
  <path d="m349.15 343.01c19.811-25.301 144.81-41.864 171.9-23.372 6.447 22.67 5.5149 47.068-14.82 76.011 7.3988 40.666-12.207 73.646-48.263 101.94l-0.2334 0.1834-0.2733-0.1144c-42.302-17.644-70.002-44.192-73.73-85.358-27.324-22.463-34.737-45.726-34.576-69.294z" fill="#1b1918"/>
  <path d="m447.47 328.01 19.293 141.9c-3.5595 3.7021-7.372 7.2603-11.371 10.686-4.7686-2.2335-9.3926-4.6443-13.812-7.262l-19.302-141.97c4.2977-0.7192 8.5842-1.354 12.826-1.9152 4.076-0.5401 8.2065-1.0239 12.366-1.4362z" fill="#fff"/>
  <path d="m178.28 585.24c-6.2001-0.1569-13.46-2.0797-18.6-0.4709-4.2382-8.7508-14.95-12.674-21.19-21.66 2.7959-2.7201 9.3641-15.965 8.9811-19.96-1.0671-11.121-12.593-18.576-27.816-33.015 2.8895-3.6396 7.2612-8.3832 11.127-7.498 4.2842 0.9814 9.5329 8.7249 13.172 14.154 1.9976 2.9807 3.9026 6.6131 5.7147 10.876 4.724 11.11 8.8284 26.502 12.366 45.802 6.23 0.1737 11.584 4.3773 16.246 11.772z" fill="#1b1918"/>
  <path d="m116.6 516.97c12.368 9.7368 20.341 18.185 23.475 25.215 2.9532 6.6245 3.6107 9.6357-4.4037 15.987-5.3879-6.5511-6.9922-13.68-10.038-20.239-3.3402-7.1939-14.533-18.485-9.0335-20.963z" fill="#1b1918"/>
  <path d="m70.687 575.83c13.266 24.734 32.317 55.657 41.541 53.091 3.7932-1.055 6.6746-8.1724 6.4895-24.603 1.9613-1.8836 2.9828-3.9235 3.0608-6.1215-8.1429 0.9216-13.753-3.432-18.129-10.359-0.856 2.3104-1.1835 4.8319-0.4709 7.7695-7.0772-7.1142-12.082-14.443-17.655-18.134-5.3406-3.5367-10.339-4.4892-14.835-1.6427z" fill="#1b1918"/>
  <path d="m125.07 577.24c-0.0872 6.1653-1.6391 11.415-4.2379 16.01-15.478-4.7394-26.118-11.348-27.782-21.425 10.556 0.3923 20.405 7.0242 32.02 5.415z" fill="#1b1918"/>
  <path d="m110.01 528.5c5.9645 11.301 9.8101 25.192 17.894 33.904l0.2352 9.4178c-17.132 0.9661-27.209-3.007-31.785-10.83 5.7289-10.242 6.8672-22.72 13.656-32.491z" fill="#1b1918"/>
  <path d="m266.81 621.27c19.934-4.7875 39.632-13.812 59.802-14.362 6.0154 20.282 2.7738 34.498-9.4179 42.85-15.931-2.5111-29.273-15.853-44.263-16.01 4.8028-5.463 2.2603-9.5268-6.1215-12.478z" fill="#1b1918"/>
  <path d="m295.77 667.18c-5.5755 2.5108-12.67 0.5425-18.82-0.1986-8.05-0.97-15.895-3.0647-23.559-6.1585-7.2014 12.885 0.2154 25.571 16.246 38.142 11.455-6.3084 19.702-17.628 26.134-31.785z" fill="#1b1918"/>
  <path d="m309.43 652.34c-17.782-2.6037-30.405-8.3835-40.025-16.01-5.0227 4.5518-19.463 9.3392-8.0048 19.306 3.663 2.9775 20.262 4.4817 31.526 5.1373 9.6404 0.5613 17.806-0.2178 16.503-8.4333z" fill="#1b1918"/>
  <path d="m243.74 674.48c6.2784 10.202 8.6134 23.996 18.835 30.608 0.7766 4.8654 0.6357 9.7315-0.4709 14.598-12.84-5.6235-24.909-14.232-36.493-24.722 6.3696-6.3048 12.544-12.922 18.129-20.483z" fill="#1b1918"/>
  <path d="m227.96 704.14c5.9702 7.9695 14.357 14.005 26.605 16.952 3.1394 23.27 24.408 22.524 36.612 33.786 4.199 4.8658-6.7886 5.4936-11.066 5.415-11.361 4.8422-22.686 4.1125-33.966-3.6776-6.6473-4.591-13.279-11.635-19.893-21.436-3.2013-4.7444-4.1628-10.724-9.5927-16.206-5.2974-12.714 7.5343-9.8888 11.301-14.833z" fill="#1b1918"/>
 </g>
</svg>
